<svg width="22" height="20" viewBox="0 0 22 20" fill="none" xmlns="http://www.w3.org/2000/svg">
<path d="M9.30274 9.0039L9.3127 9.01692L9.32349 9.02925C9.88661 9.67281 9.81351 10.544 9.37438 10.9204L9.33459 10.9545L9.30274 10.9961L3.12413 19.0682C2.81928 19.3624 2.4544 19.5 2.0998 19.5C1.74122 19.5 1.37213 19.3593 1.06523 19.0582C0.541067 18.4468 0.544686 17.5366 1.07609 16.9292L1.0893 16.9142L1.10126 16.898L6.00125 10.298L6.22253 10L6.00125 9.70195L1.10126 3.10195L1.0893 3.08584L1.07609 3.07075C0.544685 2.46342 0.541067 1.55323 1.06524 0.941785C1.37213 0.640666 1.74122 0.5 2.0998 0.5C2.4544 0.5 2.81928 0.63756 3.12412 0.931816L9.30274 9.0039ZM12.7189 9.02925L12.7297 9.01692L12.7396 9.00391L18.9183 0.931819C19.2231 0.637561 19.588 0.5 19.9426 0.5C20.3012 0.5 20.6703 0.640667 20.9772 0.941792C21.5013 1.55324 21.4977 2.46343 20.9663 3.07075L20.9531 3.08584L20.9411 3.10195L16.0411 9.70195L15.8199 10L16.0411 10.298L20.9411 16.898L20.9531 16.9142L20.9663 16.9292C21.4977 17.5366 21.5013 18.4468 20.9772 19.0582C20.6703 19.3593 20.3012 19.5 19.9426 19.5C19.588 19.5 19.2231 19.3624 18.9183 19.0682L12.7396 10.9961L12.7078 10.9545L12.668 10.9204C12.2289 10.544 12.1558 9.67281 12.7189 9.02925Z" fill="#C4C4C4"/>
<path d="M9.30274 9.0039L9.3127 9.01692L9.32349 9.02925C9.88661 9.67281 9.81351 10.544 9.37438 10.9204L9.33459 10.9545L9.30274 10.9961L3.12413 19.0682C2.81928 19.3624 2.4544 19.5 2.0998 19.5C1.74122 19.5 1.37213 19.3593 1.06523 19.0582C0.541067 18.4468 0.544686 17.5366 1.07609 16.9292L1.0893 16.9142L1.10126 16.898L6.00125 10.298L6.22253 10L6.00125 9.70195L1.10126 3.10195L1.0893 3.08584L1.07609 3.07075C0.544685 2.46342 0.541067 1.55323 1.06524 0.941785C1.37213 0.640666 1.74122 0.5 2.0998 0.5C2.4544 0.5 2.81928 0.63756 3.12412 0.931816L9.30274 9.0039ZM12.7189 9.02925L12.7297 9.01692L12.7396 9.00391L18.9183 0.931819C19.2231 0.637561 19.588 0.5 19.9426 0.5C20.3012 0.5 20.6703 0.640667 20.9772 0.941792C21.5013 1.55324 21.4977 2.46343 20.9663 3.07075L20.9531 3.08584L20.9411 3.10195L16.0411 9.70195L15.8199 10L16.0411 10.298L20.9411 16.898L20.9531 16.9142L20.9663 16.9292C21.4977 17.5366 21.5013 18.4468 20.9772 19.0582C20.6703 19.3593 20.3012 19.5 19.9426 19.5C19.588 19.5 19.2231 19.3624 18.9183 19.0682L12.7396 10.9961L12.7078 10.9545L12.668 10.9204C12.2289 10.544 12.1558 9.67281 12.7189 9.02925Z" fill="black" fill-opacity="0.2"/>
<path d="M9.30274 9.0039L9.3127 9.01692L9.32349 9.02925C9.88661 9.67281 9.81351 10.544 9.37438 10.9204L9.33459 10.9545L9.30274 10.9961L3.12413 19.0682C2.81928 19.3624 2.4544 19.5 2.0998 19.5C1.74122 19.5 1.37213 19.3593 1.06523 19.0582C0.541067 18.4468 0.544686 17.5366 1.07609 16.9292L1.0893 16.9142L1.10126 16.898L6.00125 10.298L6.22253 10L6.00125 9.70195L1.10126 3.10195L1.0893 3.08584L1.07609 3.07075C0.544685 2.46342 0.541067 1.55323 1.06524 0.941785C1.37213 0.640666 1.74122 0.5 2.0998 0.5C2.4544 0.5 2.81928 0.63756 3.12412 0.931816L9.30274 9.0039ZM12.7189 9.02925L12.7297 9.01692L12.7396 9.00391L18.9183 0.931819C19.2231 0.637561 19.588 0.5 19.9426 0.5C20.3012 0.5 20.6703 0.640667 20.9772 0.941792C21.5013 1.55324 21.4977 2.46343 20.9663 3.07075L20.9531 3.08584L20.9411 3.10195L16.0411 9.70195L15.8199 10L16.0411 10.298L20.9411 16.898L20.9531 16.9142L20.9663 16.9292C21.4977 17.5366 21.5013 18.4468 20.9772 19.0582C20.6703 19.3593 20.3012 19.5 19.9426 19.5C19.588 19.5 19.2231 19.3624 18.9183 19.0682L12.7396 10.9961L12.7078 10.9545L12.668 10.9204C12.2289 10.544 12.1558 9.67281 12.7189 9.02925Z" stroke="black"/>
<path d="M9.30274 9.0039L9.3127 9.01692L9.32349 9.02925C9.88661 9.67281 9.81351 10.544 9.37438 10.9204L9.33459 10.9545L9.30274 10.9961L3.12413 19.0682C2.81928 19.3624 2.4544 19.5 2.0998 19.5C1.74122 19.5 1.37213 19.3593 1.06523 19.0582C0.541067 18.4468 0.544686 17.5366 1.07609 16.9292L1.0893 16.9142L1.10126 16.898L6.00125 10.298L6.22253 10L6.00125 9.70195L1.10126 3.10195L1.0893 3.08584L1.07609 3.07075C0.544685 2.46342 0.541067 1.55323 1.06524 0.941785C1.37213 0.640666 1.74122 0.5 2.0998 0.5C2.4544 0.5 2.81928 0.63756 3.12412 0.931816L9.30274 9.0039ZM12.7189 9.02925L12.7297 9.01692L12.7396 9.00391L18.9183 0.931819C19.2231 0.637561 19.588 0.5 19.9426 0.5C20.3012 0.5 20.6703 0.640667 20.9772 0.941792C21.5013 1.55324 21.4977 2.46343 20.9663 3.07075L20.9531 3.08584L20.9411 3.10195L16.0411 9.70195L15.8199 10L16.0411 10.298L20.9411 16.898L20.9531 16.9142L20.9663 16.9292C21.4977 17.5366 21.5013 18.4468 20.9772 19.0582C20.6703 19.3593 20.3012 19.5 19.9426 19.5C19.588 19.5 19.2231 19.3624 18.9183 19.0682L12.7396 10.9961L12.7078 10.9545L12.668 10.9204C12.2289 10.544 12.1558 9.67281 12.7189 9.02925Z" stroke="black" stroke-opacity="0.2"/>
</svg>
